<svg width="3840" height="2160" viewBox="0 0 3840 2160" fill="none" xmlns="http://www.w3.org/2000/svg">
<g clip-path="url(#clip0_0_1)">
<g opacity="0.5" clip-path="url(#clip1_0_1)">
<path d="M1119.3 869.093C1102.4 869.093 1086.05 870.603 1071.81 873.162C1029.61 880.254 1022.2 894.991 1022.2 922.894V959.431H1121.42V971.609H985.258C956.75 971.609 931.449 988.351 923.529 1019.8C914.55 1056.34 914.037 1078.66 923.529 1116.7C930.391 1145.13 947.29 1164.9 976.311 1164.9H1010.62V1121.27C1010.62 1089.82 1039.13 1061.92 1072.35 1061.92H1171.02C1198.47 1061.92 1220.63 1040.09 1220.63 1013.2V922.37C1220.63 896.502 1197.93 877.201 1171.02 872.638C1153.58 870.11 1136.17 868.599 1119.3 869.093ZM1065.46 898.013C1075.5 898.013 1083.93 906.122 1083.93 916.266C1083.93 926.409 1075.5 934.518 1065.46 934.518C1055.42 934.518 1046.99 926.409 1046.99 916.266C1046.99 906.122 1054.91 898.013 1065.46 898.013Z" fill="url(#paint0_linear_0_1)"/>
<path d="M1232.75 970.561V1012.68C1232.75 1045.67 1203.73 1073.05 1170.48 1073.05H1071.81C1044.9 1073.05 1022.2 1095.37 1022.2 1121.76V1212.59C1022.2 1238.46 1045.42 1253.69 1071.81 1261.31C1102.95 1270.43 1133.02 1271.98 1171.02 1261.31C1195.81 1254.22 1220.63 1240.5 1220.63 1212.59V1176.06H1121.38V1163.88H1270.21C1298.72 1163.88 1309.78 1144.61 1319.82 1115.69C1330.37 1085.75 1329.85 1057.35 1319.82 1018.78C1312.95 991.373 1299.23 970.592 1270.21 970.592L1232.75 970.561ZM1176.8 1200.41C1186.83 1200.41 1195.27 1208.52 1195.27 1218.67C1195.27 1228.81 1186.83 1236.92 1176.8 1236.92C1166.76 1236.92 1158.33 1228.81 1158.33 1218.67C1158.33 1208.52 1166.79 1200.41 1176.8 1200.41Z" fill="url(#paint1_linear_0_1)"/>
</g>
<path d="M1462.01 1064.64L1461.15 1046.69L1493.31 1012.8H1510.59L1481.6 1044L1472.96 1053.22L1462.01 1064.64ZM1448.09 1080V1012.8H1463.55V1080H1448.09ZM1494.08 1080L1470.17 1050.72L1480.35 1039.68L1512.22 1080H1494.08ZM1541.58 1080.77C1535.69 1080.77 1530.5 1079.62 1526.02 1077.31C1521.61 1075.01 1518.18 1071.87 1515.75 1067.9C1513.32 1063.87 1512.1 1059.3 1512.1 1054.18C1512.1 1048.99 1513.29 1044.42 1515.66 1040.45C1518.09 1036.42 1521.38 1033.28 1525.54 1031.04C1529.7 1028.74 1534.41 1027.58 1539.66 1027.58C1544.71 1027.58 1549.26 1028.67 1553.29 1030.85C1557.38 1032.96 1560.62 1036.03 1562.98 1040.06C1565.35 1044.03 1566.54 1048.8 1566.54 1054.37C1566.54 1054.94 1566.5 1055.62 1566.44 1056.38C1566.38 1057.09 1566.31 1057.76 1566.25 1058.4H1524.3V1049.66H1558.38L1552.62 1052.26C1552.62 1049.57 1552.07 1047.23 1550.98 1045.25C1549.9 1043.26 1548.39 1041.73 1546.47 1040.64C1544.55 1039.49 1542.31 1038.91 1539.75 1038.91C1537.19 1038.91 1534.92 1039.49 1532.94 1040.64C1531.02 1041.73 1529.51 1043.3 1528.42 1045.34C1527.34 1047.33 1526.79 1049.7 1526.79 1052.45V1054.75C1526.79 1057.57 1527.4 1060.06 1528.62 1062.24C1529.9 1064.35 1531.66 1065.98 1533.9 1067.14C1536.2 1068.22 1538.89 1068.77 1541.96 1068.77C1544.71 1068.77 1547.11 1068.35 1549.16 1067.52C1551.27 1066.69 1553.19 1065.44 1554.92 1063.78L1562.89 1072.42C1560.52 1075.1 1557.54 1077.18 1553.96 1078.66C1550.38 1080.06 1546.25 1080.77 1541.58 1080.77ZM1602.14 1080.77C1596.25 1080.77 1591.07 1079.62 1586.59 1077.31C1582.17 1075.01 1578.75 1071.87 1576.31 1067.9C1573.88 1063.87 1572.67 1059.3 1572.67 1054.18C1572.67 1048.99 1573.85 1044.42 1576.22 1040.45C1578.65 1036.42 1581.95 1033.28 1586.11 1031.04C1590.27 1028.74 1594.97 1027.58 1600.22 1027.58C1605.27 1027.58 1609.82 1028.67 1613.85 1030.85C1617.95 1032.96 1621.18 1036.03 1623.55 1040.06C1625.91 1044.03 1627.1 1048.8 1627.1 1054.37C1627.1 1054.94 1627.07 1055.62 1627 1056.38C1626.94 1057.09 1626.87 1057.76 1626.81 1058.4H1584.86V1049.66H1618.94L1613.18 1052.26C1613.18 1049.57 1612.63 1047.23 1611.55 1045.25C1610.46 1043.26 1608.95 1041.73 1607.03 1040.64C1605.11 1039.49 1602.87 1038.91 1600.31 1038.91C1597.75 1038.91 1595.48 1039.49 1593.5 1040.64C1591.58 1041.73 1590.07 1043.3 1588.99 1045.34C1587.9 1047.33 1587.35 1049.7 1587.35 1052.45V1054.75C1587.35 1057.57 1587.96 1060.06 1589.18 1062.24C1590.46 1064.35 1592.22 1065.98 1594.46 1067.14C1596.76 1068.22 1599.45 1068.77 1602.52 1068.77C1605.27 1068.77 1607.67 1068.35 1609.72 1067.52C1611.83 1066.69 1613.75 1065.44 1615.48 1063.78L1623.45 1072.42C1621.08 1075.1 1618.11 1077.18 1614.52 1078.66C1610.94 1080.06 1606.81 1080.77 1602.14 1080.77ZM1637.07 1080V1028.35H1651.37V1042.94L1649.36 1038.72C1650.89 1035.07 1653.36 1032.32 1656.75 1030.46C1660.14 1028.54 1664.27 1027.58 1669.13 1027.58V1041.41C1668.49 1041.34 1667.92 1041.31 1667.4 1041.31C1666.89 1041.25 1666.35 1041.22 1665.77 1041.22C1661.68 1041.22 1658.35 1042.4 1655.79 1044.77C1653.29 1047.07 1652.04 1050.69 1652.04 1055.62V1080H1637.07ZM1700.94 1080.77C1694.86 1080.77 1690.12 1079.23 1686.73 1076.16C1683.34 1073.02 1681.64 1068.38 1681.64 1062.24V1016.93H1696.62V1062.05C1696.62 1064.22 1697.19 1065.92 1698.35 1067.14C1699.5 1068.29 1701.07 1068.86 1703.05 1068.86C1705.42 1068.86 1707.43 1068.22 1709.1 1066.94L1713.13 1077.5C1711.59 1078.59 1709.74 1079.42 1707.56 1080C1705.45 1080.51 1703.24 1080.77 1700.94 1080.77ZM1673.67 1041.02V1029.5H1709.48V1041.02H1673.67ZM1752.93 1027.58C1757.03 1027.58 1760.67 1028.42 1763.87 1030.08C1767.14 1031.68 1769.7 1034.18 1771.55 1037.57C1773.41 1040.9 1774.34 1045.18 1774.34 1050.43V1080H1759.36V1052.74C1759.36 1048.58 1758.43 1045.5 1756.58 1043.52C1754.79 1041.54 1752.23 1040.54 1748.9 1040.54C1746.53 1040.54 1744.39 1041.06 1742.47 1042.08C1740.61 1043.04 1739.14 1044.54 1738.05 1046.59C1737.03 1048.64 1736.51 1051.26 1736.51 1054.46V1080H1721.54V1008.77H1736.51V1042.66L1733.15 1038.34C1735.01 1034.88 1737.67 1032.22 1741.12 1030.37C1744.58 1028.51 1748.51 1027.58 1752.93 1027.58ZM1819.59 1080V1069.92L1818.63 1067.71V1049.66C1818.63 1046.46 1817.64 1043.97 1815.66 1042.18C1813.74 1040.38 1810.76 1039.49 1806.73 1039.49C1803.98 1039.49 1801.26 1039.94 1798.57 1040.83C1795.94 1041.66 1793.7 1042.82 1791.85 1044.29L1786.47 1033.82C1789.29 1031.84 1792.68 1030.3 1796.65 1029.22C1800.62 1028.13 1804.65 1027.58 1808.74 1027.58C1816.62 1027.58 1822.73 1029.44 1827.08 1033.15C1831.43 1036.86 1833.61 1042.66 1833.61 1050.53V1080H1819.59ZM1803.85 1080.77C1799.82 1080.77 1796.36 1080.1 1793.48 1078.75C1790.6 1077.34 1788.39 1075.46 1786.86 1073.09C1785.32 1070.72 1784.55 1068.06 1784.55 1065.12C1784.55 1062.05 1785.29 1059.36 1786.76 1057.06C1788.3 1054.75 1790.7 1052.96 1793.96 1051.68C1797.22 1050.34 1801.48 1049.66 1806.73 1049.66H1820.46V1058.4H1808.36C1804.84 1058.4 1802.41 1058.98 1801.06 1060.13C1799.78 1061.28 1799.14 1062.72 1799.14 1064.45C1799.14 1066.37 1799.88 1067.9 1801.35 1069.06C1802.89 1070.14 1804.97 1070.69 1807.59 1070.69C1810.09 1070.69 1812.33 1070.11 1814.31 1068.96C1816.3 1067.74 1817.74 1065.98 1818.63 1063.68L1820.94 1070.59C1819.85 1073.92 1817.86 1076.45 1814.98 1078.18C1812.1 1079.9 1808.39 1080.77 1803.85 1080.77ZM1878.55 1027.58C1882.65 1027.58 1886.3 1028.42 1889.5 1030.08C1892.76 1031.68 1895.32 1034.18 1897.18 1037.57C1899.03 1040.9 1899.96 1045.18 1899.96 1050.43V1080H1884.99V1052.74C1884.99 1048.58 1884.06 1045.5 1882.2 1043.52C1880.41 1041.54 1877.85 1040.54 1874.52 1040.54C1872.15 1040.54 1870.01 1041.06 1868.09 1042.08C1866.23 1043.04 1864.76 1044.54 1863.67 1046.59C1862.65 1048.64 1862.14 1051.26 1862.14 1054.46V1080H1847.16V1028.35H1861.47V1042.66L1858.78 1038.34C1860.63 1034.88 1863.29 1032.22 1866.75 1030.37C1870.2 1028.51 1874.14 1027.58 1878.55 1027.58ZM1945.22 1080V1069.92L1944.26 1067.71V1049.66C1944.26 1046.46 1943.27 1043.97 1941.28 1042.18C1939.36 1040.38 1936.39 1039.49 1932.35 1039.49C1929.6 1039.49 1926.88 1039.94 1924.19 1040.83C1921.57 1041.66 1919.33 1042.82 1917.47 1044.29L1912.1 1033.82C1914.91 1031.84 1918.31 1030.3 1922.27 1029.22C1926.24 1028.13 1930.27 1027.58 1934.37 1027.58C1942.24 1027.58 1948.35 1029.44 1952.71 1033.15C1957.06 1036.86 1959.23 1042.66 1959.23 1050.53V1080H1945.22ZM1929.47 1080.77C1925.44 1080.77 1921.99 1080.1 1919.11 1078.75C1916.23 1077.34 1914.02 1075.46 1912.48 1073.09C1910.95 1070.72 1910.18 1068.06 1910.18 1065.12C1910.18 1062.05 1910.91 1059.36 1912.39 1057.06C1913.92 1054.75 1916.32 1052.96 1919.59 1051.68C1922.85 1050.34 1927.11 1049.66 1932.35 1049.66H1946.08V1058.4H1933.99C1930.47 1058.4 1928.03 1058.98 1926.69 1060.13C1925.41 1061.28 1924.77 1062.72 1924.77 1064.45C1924.77 1066.37 1925.51 1067.9 1926.98 1069.06C1928.51 1070.14 1930.59 1070.69 1933.22 1070.69C1935.71 1070.69 1937.95 1070.11 1939.94 1068.96C1941.92 1067.74 1943.36 1065.98 1944.26 1063.68L1946.56 1070.59C1945.47 1073.92 1943.49 1076.45 1940.61 1078.18C1937.73 1079.9 1934.02 1080.77 1929.47 1080.77ZM2010.15 1063.3L2009.86 1054.66L2050.57 1012.8H2058.73L2029.06 1043.9L2025.03 1048.22L2010.15 1063.3ZM2004.01 1080V1012.8H2011.11V1080H2004.01ZM2052.29 1080L2023.3 1046.59L2028.1 1041.41L2060.74 1080H2052.29ZM2069.88 1080V1029.6H2076.41V1043.33L2075.74 1040.93C2077.14 1037.09 2079.51 1034.18 2082.84 1032.19C2086.17 1030.14 2090.3 1029.12 2095.22 1029.12V1035.74C2094.97 1035.74 2094.71 1035.74 2094.46 1035.74C2094.2 1035.68 2093.94 1035.65 2093.69 1035.65C2088.38 1035.65 2084.22 1037.28 2081.21 1040.54C2078.2 1043.74 2076.7 1048.32 2076.7 1054.27V1080H2069.88ZM2107.66 1080V1029.6H2114.48V1080H2107.66ZM2111.12 1018.46C2109.71 1018.46 2108.52 1017.98 2107.56 1017.02C2106.6 1016.06 2106.12 1014.91 2106.12 1013.57C2106.12 1012.22 2106.6 1011.1 2107.56 1010.21C2108.52 1009.25 2109.71 1008.77 2111.12 1008.77C2112.52 1008.77 2113.71 1009.22 2114.67 1010.11C2115.63 1011.01 2116.11 1012.13 2116.11 1013.47C2116.11 1014.88 2115.63 1016.06 2114.67 1017.02C2113.77 1017.98 2112.59 1018.46 2111.12 1018.46ZM2146.98 1080.48C2142.82 1080.48 2138.88 1079.9 2135.17 1078.75C2131.46 1077.54 2128.55 1076.03 2126.43 1074.24L2129.51 1068.86C2131.55 1070.4 2134.18 1071.74 2137.38 1072.9C2140.58 1073.98 2143.94 1074.53 2147.46 1074.53C2152.26 1074.53 2155.71 1073.79 2157.83 1072.32C2159.94 1070.78 2160.99 1068.77 2160.99 1066.27C2160.99 1064.42 2160.39 1062.98 2159.17 1061.95C2158.02 1060.86 2156.48 1060.06 2154.56 1059.55C2152.64 1058.98 2150.5 1058.5 2148.13 1058.11C2145.76 1057.73 2143.39 1057.28 2141.03 1056.77C2138.72 1056.26 2136.61 1055.52 2134.69 1054.56C2132.77 1053.54 2131.2 1052.16 2129.99 1050.43C2128.83 1048.7 2128.26 1046.4 2128.26 1043.52C2128.26 1040.77 2129.03 1038.3 2130.56 1036.13C2132.1 1033.95 2134.34 1032.26 2137.28 1031.04C2140.29 1029.76 2143.94 1029.12 2148.23 1029.12C2151.49 1029.12 2154.75 1029.57 2158.02 1030.46C2161.28 1031.3 2163.97 1032.42 2166.08 1033.82L2163.11 1039.3C2160.87 1037.76 2158.47 1036.67 2155.91 1036.03C2153.35 1035.33 2150.79 1034.98 2148.23 1034.98C2143.68 1034.98 2140.32 1035.78 2138.15 1037.38C2136.03 1038.91 2134.98 1040.9 2134.98 1043.33C2134.98 1045.25 2135.55 1046.75 2136.71 1047.84C2137.92 1048.93 2139.49 1049.79 2141.41 1050.43C2143.39 1051.01 2145.54 1051.49 2147.84 1051.87C2150.21 1052.26 2152.55 1052.74 2154.85 1053.31C2157.22 1053.82 2159.36 1054.56 2161.28 1055.52C2163.27 1056.42 2164.83 1057.73 2165.99 1059.46C2167.2 1061.12 2167.81 1063.33 2167.81 1066.08C2167.81 1069.02 2166.98 1071.58 2165.31 1073.76C2163.71 1075.87 2161.35 1077.54 2158.21 1078.75C2155.14 1079.9 2151.39 1080.48 2146.98 1080.48ZM2206.04 1029.12C2210.14 1029.12 2213.72 1029.92 2216.8 1031.52C2219.93 1033.06 2222.36 1035.42 2224.09 1038.62C2225.88 1041.82 2226.78 1045.86 2226.78 1050.72V1080H2219.96V1051.39C2219.96 1046.08 2218.62 1042.08 2215.93 1039.39C2213.31 1036.64 2209.6 1035.26 2204.8 1035.26C2201.21 1035.26 2198.08 1036 2195.39 1037.47C2192.76 1038.88 2190.72 1040.96 2189.24 1043.71C2187.84 1046.4 2187.13 1049.66 2187.13 1053.5V1080H2180.32V1008.77H2187.13V1043.42L2185.79 1040.83C2187.39 1037.18 2189.95 1034.34 2193.47 1032.29C2196.99 1030.18 2201.18 1029.12 2206.04 1029.12ZM2270.92 1029.12C2275.02 1029.12 2278.6 1029.92 2281.67 1031.52C2284.81 1033.06 2287.24 1035.42 2288.97 1038.62C2290.76 1041.82 2291.66 1045.86 2291.66 1050.72V1080H2284.84V1051.39C2284.84 1046.08 2283.5 1042.08 2280.81 1039.39C2278.18 1036.64 2274.47 1035.26 2269.67 1035.26C2266.09 1035.26 2262.95 1036 2260.26 1037.47C2257.64 1038.88 2255.59 1040.96 2254.12 1043.71C2252.71 1046.4 2252.01 1049.66 2252.01 1053.5V1080H2245.19V1029.6H2251.72V1043.42L2250.66 1040.83C2252.26 1037.18 2254.82 1034.34 2258.34 1032.29C2261.86 1030.18 2266.06 1029.12 2270.92 1029.12ZM2341.65 1080V1068.86L2341.36 1067.04V1048.42C2341.36 1044.13 2340.15 1040.83 2337.71 1038.53C2335.35 1036.22 2331.79 1035.07 2327.06 1035.07C2323.79 1035.07 2320.69 1035.62 2317.75 1036.7C2314.8 1037.79 2312.31 1039.23 2310.26 1041.02L2307.19 1035.94C2309.75 1033.76 2312.82 1032.1 2316.4 1030.94C2319.99 1029.73 2323.76 1029.12 2327.73 1029.12C2334.26 1029.12 2339.28 1030.75 2342.8 1034.02C2346.39 1037.22 2348.18 1042.11 2348.18 1048.7V1080H2341.65ZM2324.27 1080.48C2320.5 1080.48 2317.2 1079.87 2314.39 1078.66C2311.63 1077.38 2309.52 1075.65 2308.05 1073.47C2306.58 1071.23 2305.84 1068.67 2305.84 1065.79C2305.84 1063.17 2306.45 1060.8 2307.67 1058.69C2308.95 1056.51 2310.99 1054.78 2313.81 1053.5C2316.69 1052.16 2320.53 1051.49 2325.33 1051.49H2342.71V1056.58H2325.52C2320.66 1056.58 2317.27 1057.44 2315.35 1059.17C2313.49 1060.9 2312.56 1063.04 2312.56 1065.6C2312.56 1068.48 2313.68 1070.78 2315.92 1072.51C2318.16 1074.24 2321.3 1075.1 2325.33 1075.1C2329.17 1075.1 2332.47 1074.24 2335.22 1072.51C2338.03 1070.72 2340.08 1068.16 2341.36 1064.83L2342.9 1069.54C2341.62 1072.86 2339.38 1075.52 2336.18 1077.5C2333.04 1079.49 2329.07 1080.48 2324.27 1080.48ZM2429.67 1029.12C2433.76 1029.12 2437.32 1029.92 2440.32 1031.52C2443.4 1033.06 2445.76 1035.42 2447.43 1038.62C2449.16 1041.82 2450.02 1045.86 2450.02 1050.72V1080H2443.2V1051.39C2443.2 1046.08 2441.92 1042.08 2439.36 1039.39C2436.87 1036.64 2433.32 1035.26 2428.71 1035.26C2425.25 1035.26 2422.24 1036 2419.68 1037.47C2417.19 1038.88 2415.24 1040.96 2413.83 1043.71C2412.48 1046.4 2411.81 1049.66 2411.81 1053.5V1080H2405V1051.39C2405 1046.08 2403.72 1042.08 2401.16 1039.39C2398.6 1036.64 2395.01 1035.26 2390.4 1035.26C2387.01 1035.26 2384.04 1036 2381.48 1037.47C2378.92 1038.88 2376.93 1040.96 2375.52 1043.71C2374.18 1046.4 2373.51 1049.66 2373.51 1053.5V1080H2366.69V1029.6H2373.22V1043.23L2372.16 1040.83C2373.7 1037.18 2376.16 1034.34 2379.56 1032.29C2383.01 1030.18 2387.08 1029.12 2391.75 1029.12C2396.68 1029.12 2400.87 1030.37 2404.32 1032.86C2407.78 1035.3 2410.02 1038.98 2411.04 1043.9L2408.36 1042.85C2409.83 1038.75 2412.42 1035.46 2416.13 1032.96C2419.91 1030.4 2424.42 1029.12 2429.67 1029.12ZM2489.05 1080.48C2484.18 1080.48 2479.8 1079.39 2475.9 1077.22C2472.06 1074.98 2469.02 1071.94 2466.78 1068.1C2464.54 1064.19 2463.42 1059.74 2463.42 1054.75C2463.42 1049.7 2464.54 1045.25 2466.78 1041.41C2469.02 1037.57 2472.06 1034.56 2475.9 1032.38C2479.74 1030.21 2484.12 1029.12 2489.05 1029.12C2494.04 1029.12 2498.46 1030.21 2502.3 1032.38C2506.2 1034.56 2509.24 1037.57 2511.42 1041.41C2513.66 1045.25 2514.78 1049.7 2514.78 1054.75C2514.78 1059.74 2513.66 1064.19 2511.42 1068.1C2509.24 1071.94 2506.2 1074.98 2502.3 1077.22C2498.39 1079.39 2493.98 1080.48 2489.05 1080.48ZM2489.05 1074.43C2492.7 1074.43 2495.93 1073.63 2498.74 1072.03C2501.56 1070.37 2503.77 1068.06 2505.37 1065.12C2507.03 1062.11 2507.86 1058.66 2507.86 1054.75C2507.86 1050.78 2507.03 1047.33 2505.37 1044.38C2503.77 1041.44 2501.56 1039.17 2498.74 1037.57C2495.93 1035.9 2492.73 1035.07 2489.14 1035.07C2485.56 1035.07 2482.36 1035.9 2479.54 1037.57C2476.73 1039.17 2474.49 1041.44 2472.82 1044.38C2471.16 1047.33 2470.33 1050.78 2470.33 1054.75C2470.33 1058.66 2471.16 1062.11 2472.82 1065.12C2474.49 1068.06 2476.73 1070.37 2479.54 1072.03C2482.36 1073.63 2485.53 1074.43 2489.05 1074.43ZM2549.24 1080.48C2544.37 1080.48 2539.99 1079.39 2536.08 1077.22C2532.24 1074.98 2529.2 1071.94 2526.96 1068.1C2524.72 1064.19 2523.6 1059.74 2523.6 1054.75C2523.6 1049.7 2524.72 1045.25 2526.96 1041.41C2529.2 1037.57 2532.24 1034.56 2536.08 1032.38C2539.92 1030.21 2544.31 1029.12 2549.24 1029.12C2554.23 1029.12 2558.64 1030.21 2562.48 1032.38C2566.39 1034.56 2569.43 1037.57 2571.6 1041.41C2573.84 1045.25 2574.96 1049.7 2574.96 1054.75C2574.96 1059.74 2573.84 1064.19 2571.6 1068.1C2569.43 1071.94 2566.39 1074.98 2562.48 1077.22C2558.58 1079.39 2554.16 1080.48 2549.24 1080.48ZM2549.24 1074.43C2552.88 1074.43 2556.12 1073.63 2558.93 1072.03C2561.75 1070.37 2563.96 1068.06 2565.56 1065.12C2567.22 1062.11 2568.05 1058.66 2568.05 1054.75C2568.05 1050.78 2567.22 1047.33 2565.56 1044.38C2563.96 1041.44 2561.75 1039.17 2558.93 1037.57C2556.12 1035.9 2552.92 1035.07 2549.33 1035.07C2545.75 1035.07 2542.55 1035.9 2539.73 1037.57C2536.92 1039.17 2534.68 1041.44 2533.01 1044.38C2531.35 1047.33 2530.52 1050.78 2530.52 1054.75C2530.52 1058.66 2531.35 1062.11 2533.01 1065.12C2534.68 1068.06 2536.92 1070.37 2539.73 1072.03C2542.55 1073.63 2545.72 1074.43 2549.24 1074.43ZM2588.88 1080V1029.6H2595.41V1043.33L2594.74 1040.93C2596.14 1037.09 2598.51 1034.18 2601.84 1032.19C2605.17 1030.14 2609.3 1029.12 2614.22 1029.12V1035.74C2613.97 1035.74 2613.71 1035.74 2613.46 1035.74C2613.2 1035.68 2612.94 1035.65 2612.69 1035.65C2607.38 1035.65 2603.22 1037.28 2600.21 1040.54C2597.2 1043.74 2595.7 1048.32 2595.7 1054.27V1080H2588.88ZM2644.75 1080.48C2640.02 1080.48 2636.37 1079.2 2633.81 1076.64C2631.25 1074.08 2629.97 1070.46 2629.97 1065.79V1018.46H2636.78V1065.41C2636.78 1068.35 2637.52 1070.62 2638.99 1072.22C2640.53 1073.82 2642.7 1074.62 2645.52 1074.62C2648.53 1074.62 2651.02 1073.76 2653.01 1072.03L2655.41 1076.93C2654.06 1078.14 2652.43 1079.04 2650.51 1079.62C2648.66 1080.19 2646.74 1080.48 2644.75 1080.48ZM2620.94 1035.26V1029.6H2652.14V1035.26H2620.94ZM2693.54 1029.12C2697.64 1029.12 2701.22 1029.92 2704.3 1031.52C2707.43 1033.06 2709.86 1035.42 2711.59 1038.62C2713.38 1041.82 2714.28 1045.86 2714.28 1050.72V1080H2707.46V1051.39C2707.46 1046.08 2706.12 1042.08 2703.43 1039.39C2700.81 1036.64 2697.1 1035.26 2692.3 1035.26C2688.71 1035.26 2685.58 1036 2682.89 1037.47C2680.26 1038.88 2678.22 1040.96 2676.74 1043.71C2675.34 1046.4 2674.63 1049.66 2674.63 1053.5V1080H2667.82V1008.77H2674.63V1043.42L2673.29 1040.83C2674.89 1037.18 2677.45 1034.34 2680.97 1032.29C2684.49 1030.18 2688.68 1029.12 2693.54 1029.12ZM2732.14 1099.1C2729.77 1099.1 2727.5 1098.72 2725.32 1097.95C2723.21 1097.18 2721.39 1096.03 2719.85 1094.5L2723.02 1089.41C2724.3 1090.62 2725.67 1091.55 2727.15 1092.19C2728.68 1092.9 2730.38 1093.25 2732.23 1093.25C2734.47 1093.25 2736.39 1092.61 2737.99 1091.33C2739.66 1090.11 2741.23 1087.94 2742.7 1084.8L2745.96 1077.41L2746.73 1076.35L2767.47 1029.6H2774.19L2748.94 1086.05C2747.53 1089.31 2745.96 1091.9 2744.23 1093.82C2742.57 1095.74 2740.75 1097.09 2738.76 1097.86C2736.78 1098.69 2734.57 1099.1 2732.14 1099.1ZM2745.58 1081.44L2722.35 1029.6H2729.45L2749.99 1075.87L2745.58 1081.44Z" fill="#D1C7C7"/>
</g>
<defs>
<linearGradient id="paint0_linear_0_1" x1="905.662" y1="879.899" x2="1126.68" y2="1075.76" gradientUnits="userSpaceOnUse">
<stop stop-color="#81A1C1"/>
<stop offset="1" stop-color="#5E81AC"/>
</linearGradient>
<linearGradient id="paint1_linear_0_1" x1="1220.47" y1="1183.79" x2="1142.66" y2="1070.41" gradientUnits="userSpaceOnUse">
<stop stop-color="#DCB973"/>
<stop offset="1" stop-color="#EBCB8B"/>
</linearGradient>
<clipPath id="clip0_0_1">
<rect width="3840" height="2160" fill="white"/>
</clipPath>
<clipPath id="clip1_0_1">
<rect width="667" height="717" fill="white" transform="translate(828 869)"/>
</clipPath>
</defs>
</svg>
